<?xml version="1.0" encoding="utf-8"?>
<!-- Generator: Adobe Illustrator 19.2.1, SVG Export Plug-In . SVG
Version: 6.00 Build 0)  -->
<svg version="1.1" id="Capa_1" xmlns="http://www.w3.org/2000/svg"
xmlns:xlink="http://www.w3.org/1999/xlink" x="0px" y="0px"
      viewBox="0 0 25 25" style="enable-background:new 0 0 25 25;" preserveAspectRatio="xMinYMid" width="25px" height="25px"
xml:space="preserve">
<style type="text/css">
     .st0{fill:#FFFFFF;stroke:#AAAAAA;stroke-miterlimit:10;}
     .st1{fill:#A8B533;}
</style>
<path class="st0"
d="M23.4,24.4H1.6c-0.5,0-1-0.5-1-1V1.6c0-0.5,0.5-1,1-1h21.8c0.5,0,1,0.5,1,1v21.8C24.4,23.9,23.9,24.4,23.4,24.4
     z"/>
<path class="st1"
d="M21.7,8.1c-0.5-0.5-1-1-1.5-1.5c-0.6-0.6-1.3-0.6-1.9,0c-1.2,1.2-2.4,2.4-3.6,3.6c-1.5,1.5-2.9,2.9-4.4,4.4
c-1.2-1.2-2.4-2.4-3.6-3.6c-0.6-0.6-1.2-0.6-1.8,0c-0.5,0.5-1,1-1.5,1.5c-0.6,0.6-0.6,1.2,0,1.8c2,2,4,4,6,6
c0.2,0.2,0.4,0.3,0.6,0.4c0.6,0.2,1-0.1,1.4-0.5c3.4-3.4,6.8-6.8,10.2-10.2c0.1-0.1,0.1-0.2,0.2-0.2C22.2,9.3,22.2,8.6,21.7,8.1z"/>
</svg>
