<svg xmlns="http://www.w3.org/2000/svg" width="20" height="20">
<path fill="#b9c800" d="M10.968.968a.968.968 0 1 1-1.936 0 .968.968 0 0 1 1.936 0zm0 18.064a.968.968 0 1 1-1.936 0 .968.968 0 0 1 1.936 0zM6.452 2.162a.968.968 0 1 1-1.936 0 .968.968 0 0 1 1.936 0zm8.901 15.192c.257.454.096 1.033-.353 1.321-.454.257-1.033.096-1.321-.353-.257-.454-.096-1.033.353-1.321a.978.978 0 0 1 1.321.353zM2.646 4.642c.454.257.615.837.353 1.321-.257.454-.837.615-1.321.353-.454-.257-.615-.837-.353-1.321.257-.479.867-.61 1.321-.353zm15.676 9.032c.454.257.615.837.353 1.321-.257.454-.837.615-1.321.353-.454-.257-.615-.837-.353-1.321.257-.449.837-.61 1.321-.353zM1.936 10A.968.968 0 1 1 0 10a.968.968 0 0 1 1.936 0zM20 10a.968.968 0 1 1-1.936 0A.968.968 0 0 1 20 10zM1.678 13.674c.454-.257 1.033-.096 1.321.353.257.454.096 1.033-.353 1.321-.454.257-1.033.096-1.321-.353-.292-.449-.101-1.028.353-1.321zm15.676-9.032c.454-.257 1.033-.096 1.321.353.257.454.096 1.033-.353 1.321-.454.257-1.033.096-1.321-.353a.99.99 0 0 1 .353-1.321zM4.647 17.354c.257-.454.837-.615 1.321-.353.454.257.615.837.353 1.321-.257.454-.837.615-1.321.353-.454-.287-.615-.867-.353-1.321zm9.032-15.676c.257-.454.837-.615 1.321-.353.454.257.615.837.353 1.321-.257.454-.837.615-1.321.353-.454-.257-.615-.837-.353-1.321z"/>
</svg>